<?xml version="1.0" encoding="UTF-8" standalone="no"?><!-- Generator: Gravit.io --><svg xmlns="http://www.w3.org/2000/svg" xmlns:xlink="http://www.w3.org/1999/xlink" style="isolation:isolate" viewBox="0 0 164.409 144.567" width="164.409pt" height="144.567pt"><g><path d=" M 23.333 126.187 L 45.41 126.187 L 45.41 137.339 L 23.333 137.339 L 23.333 126.187 Z  M 119 126.187 L 141.077 126.187 L 141.077 137.339 L 119 137.339 L 119 126.187 Z " fill="rgb(69,90,100)"/><path d=" M 141.077 133.622 L 23.333 133.622 C 15.201 133.622 8.615 126.967 8.615 118.752 L 8.615 22.098 C 8.615 13.882 15.201 7.228 23.333 7.228 L 141.077 7.228 C 149.209 7.228 155.795 13.882 155.795 22.098 L 155.795 118.752 C 155.795 126.967 149.209 133.622 141.077 133.622 Z " fill="rgb(120,144,156)"/><path d=" M 141.077 122.469 L 23.333 122.469 C 21.309 122.469 19.653 120.796 19.653 118.752 L 19.653 22.098 C 19.653 20.053 21.309 18.38 23.333 18.38 L 141.077 18.38 C 143.101 18.38 144.756 20.053 144.756 22.098 L 144.756 118.752 C 144.756 120.796 143.101 122.469 141.077 122.469 Z " fill="rgb(144,164,174)"/><path d=" M 100.602 33.25 C 80.28 33.25 63.807 49.893 63.807 70.425 C 63.807 90.956 80.28 107.599 100.602 107.599 C 120.924 107.599 137.397 90.956 137.397 70.425 C 137.397 49.893 120.924 33.25 100.602 33.25 Z  M 100.602 96.447 C 86.374 96.447 74.846 84.8 74.846 70.425 C 74.846 56.049 86.374 44.403 100.602 44.403 C 114.831 44.403 126.359 56.049 126.359 70.425 C 126.359 84.8 114.831 96.447 100.602 96.447 Z " fill="rgb(55,71,79)"/><path d=" M 38.051 55.555 C 33.986 55.555 30.692 58.884 30.692 62.99 L 30.692 92.729 C 30.692 96.836 33.986 100.164 38.051 100.164 C 42.115 100.164 45.41 96.836 45.41 92.729 L 45.41 62.99 C 45.41 58.884 42.115 55.555 38.051 55.555 Z " fill="rgb(69,90,100)"/><path d=" M 123.831 52.217 L 125.31 50.718 C 126.006 50.025 126.398 49.078 126.398 48.09 C 126.398 47.102 126.006 46.156 125.31 45.462 C 124.624 44.759 123.687 44.363 122.709 44.363 C 121.731 44.363 120.794 44.759 120.107 45.462 L 118.624 46.956 C 120.582 48.481 122.319 50.239 123.827 52.217 M 77.377 52.217 C 78.881 50.245 80.63 48.477 82.58 46.956 L 81.097 45.462 C 80.411 44.759 79.474 44.363 78.496 44.363 C 77.518 44.363 76.581 44.759 75.894 45.462 C 75.198 46.156 74.806 47.102 74.806 48.09 C 74.806 49.078 75.198 50.025 75.894 50.718 L 77.377 52.217 Z  M 71.166 70.425 C 71.166 69.161 71.266 67.927 71.409 66.707 L 69.326 66.707 C 67.303 66.707 65.647 68.38 65.647 70.425 C 65.647 72.469 67.303 74.142 69.326 74.142 L 71.409 74.142 C 71.255 72.909 71.174 71.668 71.166 70.425 Z  M 100.602 40.685 C 101.853 40.685 103.075 40.785 104.282 40.945 L 104.282 38.826 C 104.282 36.782 102.626 35.109 100.602 35.109 C 98.579 35.109 96.923 36.782 96.923 38.826 L 96.923 40.945 C 98.13 40.785 99.351 40.685 100.602 40.685 Z  M 123.831 88.633 C 122.326 90.604 120.576 92.372 118.624 93.893 L 120.107 95.387 C 121.544 96.839 123.873 96.839 125.31 95.387 C 126.006 94.694 126.398 93.747 126.398 92.759 C 126.398 91.771 126.006 90.825 125.31 90.131 L 123.831 88.633 Z  M 77.377 88.633 L 75.894 90.131 C 75.198 90.825 74.806 91.771 74.806 92.759 C 74.806 93.747 75.198 94.694 75.894 95.387 C 77.331 96.839 79.66 96.839 81.097 95.387 L 82.58 93.893 C 80.629 92.372 78.879 90.604 77.374 88.633 M 131.878 66.707 L 129.795 66.707 C 129.939 67.927 130.038 69.161 130.038 70.425 C 130.038 71.689 129.939 72.923 129.795 74.142 L 131.878 74.142 C 133.902 74.142 135.558 72.469 135.558 70.425 C 135.558 68.38 133.902 66.707 131.878 66.707 Z  M 100.602 100.164 C 99.351 100.164 98.13 100.064 96.923 99.904 L 96.923 102.023 C 96.923 104.068 98.579 105.741 100.602 105.741 C 102.626 105.741 104.282 104.068 104.282 102.023 L 104.282 99.904 C 103.075 100.064 101.853 100.164 100.602 100.164 Z " fill="rgb(176,190,197)"/><path d=" M 38.051 48.12 C 33.986 48.12 30.692 51.449 30.692 55.555 L 30.692 85.295 C 30.692 89.401 33.986 92.729 38.051 92.729 C 42.115 92.729 45.41 89.401 45.41 85.295 L 45.41 55.555 C 45.41 51.449 42.115 48.12 38.051 48.12 Z " fill="rgb(207,216,220)"/></g></svg>